<?xml version="1.0" encoding="utf-8"?>
<!-- Generator: Adobe Illustrator 23.0.4, SVG Export Plug-In . SVG Version: 6.00 Build 0)  -->
<svg version="1.1" xmlns="http://www.w3.org/2000/svg" xmlns:xlink="http://www.w3.org/1999/xlink" x="0px" y="0px"
	 viewBox="0 0 670 450" style="enable-background:new 0 0 670 450;" xml:space="preserve">
<style type="text/css">
	.st0{fill:#1BCC49;}
	.st1{fill:#F1F2F2;}
	.st2{font-family:'ArialRoundedMTBold';}
	.st3{font-size:24.6986px;}
	.st4{fill:#BCBEC0;}
	.st5{fill:#F9D606;}
</style>
<g id="Layer_2">
	<rect x="262.7" y="97" class="st0" width="142.9" height="43.3"/>
	<rect x="271" y="103.8" class="st1" width="126.1" height="28.9"/>
	<text transform="matrix(1.105 0 0 1 275.5234 125.7627)" class="st0 st2 st3">x</text>
	<rect x="294.8" y="116.5" class="st4" width="96.6" height="5.9"/>
	<rect x="108.2" y="97" class="st0" width="142.9" height="43.3"/>
	<rect x="108.2" y="156.5" class="st5" width="452.7" height="188.5"/>
	<rect x="116.4" y="103.8" class="st1" width="126.1" height="28.9"/>
	<text transform="matrix(1.105 0 0 1 120.9478 125.7627)" class="st0 st2 st3">x</text>
	<rect x="140.2" y="116.5" class="st4" width="96.6" height="5.9"/>
	<rect x="417.3" y="97" class="st0" width="142.9" height="43.3"/>
	<rect x="425.6" y="103.8" class="st1" width="126.1" height="28.9"/>
	<text transform="matrix(1.105 0 0 1 430.0986 125.7627)" class="st0 st2 st3">x</text>
	<rect x="449.4" y="116.5" class="st4" width="96.6" height="5.9"/>
	<rect x="116.6" y="164.9" class="st1" width="435.8" height="171.6"/>
	<rect x="148.9" y="190.8" class="st4" width="382.2" height="10.7"/>
	<rect x="148.9" y="212.8" class="st4" width="382.2" height="10.7"/>
	<rect x="148.9" y="234.9" class="st4" width="382.2" height="10.7"/>
	<rect x="148.9" y="257" class="st4" width="382.2" height="10.7"/>
	<rect x="148.9" y="279.1" class="st4" width="382.2" height="10.7"/>
	<rect x="148.9" y="301.2" class="st4" width="282.9" height="10.7"/>
	
		<rect x="129.4" y="185" transform="matrix(0.5192 -0.8547 0.8547 0.5192 -94.8487 210.2459)" class="st5" width="20.1" height="8.9"/>
	<path class="st5" d="M130.3,195.7l0.4,8.3l7.3-3.7L130.3,195.7z M131.5,200.3l-0.1-2.9l4.6,2.8l-2.5,1.3L131.5,200.3z"/>
	<path class="st5" d="M148.7,175.1l-0.8-0.5c-1.9-1.1-4.4-0.5-5.5,1.3l-0.7,1.2l7.6,4.6l0.7-1.2
		C151.2,178.7,150.6,176.2,148.7,175.1z"/>
</g>
<g id="Layer_5">
</g>
<g id="Layer_7">
</g>
</svg>
