<svg version="1.2" xmlns="http://www.w3.org/2000/svg" xmlns:xlink="http://www.w3.org/1999/xlink" overflow="visible" preserveAspectRatio="none" viewBox="0 0 24 24" width="14" height="14"><g><path xmlns:default="http://www.w3.org/2000/svg" id="i-cursor" d="M15.99,4h0.67V2.67h-0.67c-1.89,0-3.22,0.51-4,1.52c-0.78-1.01-2.11-1.52-4-1.52H7.34V4h0.66  c2.22,0,3.33,0.78,3.33,2.33v4.33H9.99V12h1.33v5.66c0,1.56-1.11,2.34-3.33,2.34H7.34v1.33h0.66c1.89,0,3.22-0.51,4-1.52  c0.78,1.01,2.11,1.52,4,1.52h0.67V20h-0.67c-2.22,0-3.33-0.78-3.33-2.33V12h1.33v-1.33h-1.33V6.34C12.67,4.78,13.77,4,15.99,4  L15.99,4z" style="fill: rgb(18, 18, 18);" vector-effect="non-scaling-stroke"/></g></svg>